<?xml version="1.0" encoding="UTF-8"?>
<svg width="1e3" height="1e3" version="1.1" viewBox="0 0 1e3 1e3" xml:space="preserve" xmlns="http://www.w3.org/2000/svg" xmlns:xlink="http://www.w3.org/1999/xlink"><defs><linearGradient id="b" x1="500" x2="500" y2="1e3" gradientUnits="userSpaceOnUse"><stop stop-color="#fde07a" offset="0"/><stop stop-color="#cc7a33" offset="1"/></linearGradient><linearGradient id="a" x1="49" x2="951" y1="45" y2="955" gradientUnits="userSpaceOnUse"><stop stop-color="#002272" offset="0"/><stop stop-color="#00759b" offset="1"/></linearGradient><linearGradient id="c" x1="256" x2="256" y1="25" y2="487" gradientUnits="userSpaceOnUse"><stop stop-color="#fff6db" offset="0"/><stop stop-color="#ffd56c" offset="1"/></linearGradient><filter id="d" x="-.011" y="-.012" width="1" height="1" color-interpolation-filters="sRGB"><feFlood flood-color="rgb(0,0,0)" flood-opacity=".35" in="SourceGraphic" result="flood"/><feGaussianBlur in="SourceGraphic" result="blur" stdDeviation="2.300000"/><feOffset dx="8.000000" dy="10.000000" in="blur" result="offset"/><feComposite in="flood" in2="offset" operator="in" result="comp1"/><feComposite in="SourceGraphic" in2="comp1" result="comp2"/></filter></defs><path d="m162 0h676a162 162 45 0 1 162 162v676a162 162 135 0 1-162 162h-676a162 162 45 0 1-162-162v-676a162 162 135 0 1 162-162z" fill="url(#b)" stroke-opacity=".43" stroke-width="1.4"/><path transform="matrix(.99 0 0 .98 4.7 9.4)" d="m191 45h618a142 142 45 0 1 142 142v625a142 142 135 0 1-142 142h-618a142 142 45 0 1-142-142v-625a142 142 135 0 1 142-142z" color="#000000" color-rendering="auto" dominant-baseline="auto" fill="url(#a)" image-rendering="auto" shape-rendering="auto" solid-color="#000000" stop-color="#000000" style="-inkscape-stroke:none;font-feature-settings:normal;font-variant-alternates:normal;font-variant-caps:normal;font-variant-east-asian:normal;font-variant-ligatures:normal;font-variant-numeric:normal;font-variant-position:normal;font-variation-settings:normal;inline-size:0;isolation:auto;mix-blend-mode:normal;shape-margin:0;shape-padding:0;text-decoration-color:#000000;text-decoration-line:none;text-decoration-style:solid;text-indent:0;text-orientation:mixed;text-transform:none;white-space:normal"/><path transform="matrix(1.6 0 0 1.6 90 90)" d="m154 25-32 31c-12 11-18 26-18 42-0.28 16 5.7 31 17 43-5.9 6.7-11 14-16 21-0.48-0.75-0.96-1.5-1.5-2.2-9.2-13-23-22-39-25l-30-5.2-7.8 44c-2.8 16 0.75 32 9.9 45s23 22 39 25l0.63 0.11c-0.49 5.5-0.77 11-0.77 17 0 3.3 0.12 6.5 0.29 9.8-15-6-33-5.9-48 1.8l-27 13 20 40c7 14 19 25 34 30 6.4 2.2 13 3.3 20 3.3 9-1e-3 18-2 26-6.1l0.6-0.29c4.5 7.6 9.6 15 15 22-16 4-30 14-38 30l-14 26 40 21c8.8 4.7 18 7.1 28 7.1 5.9-1e-3 12-0.88 18-2.7 15-4.7 28-15 35-29l0.32-0.59c7.7 3.3 16 6.1 24 8.4-7.7 10-12 23-12 36v15h30v-15c0-17 13-30 30-30 17 0 30 13 30 30v15h30v-15c0-14-4.6-26-12-36 8.2-2.2 16-5.1 24-8.4l0.32 0.6c7.5 14 20 25 35 29 5.8 1.8 12 2.6 18 2.7 9.7 0 19-2.4 28-7.1l40-21-14-26c-8.2-16-22-26-38-30 5.5-6.8 11-14 15-22l0.6 0.29c8.3 4.1 17 6.1 26 6.1 6.6 0 13-1.1 20-3.3 15-5.2 27-16 34-30l20-40-27-13c-16-7.7-33-7.8-48-1.8 0.17-3.2 0.29-6.5 0.29-9.8 0-5.6-0.28-11-0.77-17l0.63-0.11c16-2.8 30-12 39-25 9.2-13 13-29 9.9-45l-7.8-44-30 5.2c-16 2.8-30 12-39 25-0.51 0.73-1 1.5-1.5 2.2-4.8-7.3-10-14-16-21 11-12 17-27 17-43-0.28-16-6.8-31-18-42l-32-31-21 22c-23 24-22 62 1.5 85l32 31c23 27 36 61 36 98 0 83-68 151-151 151s-151-68-151-151c0-36 13-71 36-98l32-31c24-23 24-61 1.5-85l-21-22zm102 113-36 72-80 12 58 56-14 79 71-37 71 37-14-79 58-56-80-12-36-72z" fill="url(#c)" filter="url(#d)"/></svg>
